<mxfile host="Electron" modified="2024-12-11T20:02:05.945Z" agent="Mozilla/5.0 (Windows NT 10.0; Win64; x64) AppleWebKit/537.36 (KHTML, like Gecko) draw.io/22.1.2 Chrome/114.0.5735.289 Electron/25.9.4 Safari/537.36" etag="W7G7u21xq3gEPLlLTlua" version="22.1.2" type="device">
  <diagram name="Page-1" id="pTxlYttks34uYEtYcAzn">
    <mxGraphModel dx="1168" dy="666" grid="1" gridSize="10" guides="1" tooltips="1" connect="1" arrows="1" fold="1" page="1" pageScale="1" pageWidth="583" pageHeight="827" math="0" shadow="0">
      <root>
        <mxCell id="0" />
        <mxCell id="1" parent="0" />
        <mxCell id="KihU2rt-mS4HAPZHkK98-28" value="adapter board" style="rounded=0;whiteSpace=wrap;html=1;align=left;verticalAlign=bottom;fillColor=#fff2cc;strokeColor=#d6b656;" parent="1" vertex="1">
          <mxGeometry x="160" y="300" width="250" height="110" as="geometry" />
        </mxCell>
        <mxCell id="KihU2rt-mS4HAPZHkK98-1" value="CM5 I/O&lt;br&gt;(Saturn 40 pin)" style="rounded=0;whiteSpace=wrap;html=1;" parent="1" vertex="1">
          <mxGeometry x="440" y="10" width="120" height="150" as="geometry" />
        </mxCell>
        <mxCell id="KihU2rt-mS4HAPZHkK98-2" value="modify" style="ellipse;whiteSpace=wrap;html=1;fillColor=#fff2cc;strokeColor=#d6b656;" parent="1" vertex="1">
          <mxGeometry x="232" y="10" width="78" height="30" as="geometry" />
        </mxCell>
        <mxCell id="KihU2rt-mS4HAPZHkK98-3" value="" style="endArrow=classic;html=1;rounded=0;entryX=0;entryY=0.5;entryDx=0;entryDy=0;" parent="1" target="KihU2rt-mS4HAPZHkK98-2" edge="1">
          <mxGeometry width="50" height="50" relative="1" as="geometry">
            <mxPoint x="120" y="25" as="sourcePoint" />
            <mxPoint x="440" y="440" as="targetPoint" />
          </mxGeometry>
        </mxCell>
        <mxCell id="KihU2rt-mS4HAPZHkK98-4" value="" style="endArrow=classic;html=1;rounded=0;entryX=-0.017;entryY=0.087;entryDx=0;entryDy=0;entryPerimeter=0;" parent="1" target="KihU2rt-mS4HAPZHkK98-1" edge="1">
          <mxGeometry width="50" height="50" relative="1" as="geometry">
            <mxPoint x="310" y="24.5" as="sourcePoint" />
            <mxPoint x="412" y="24.5" as="targetPoint" />
          </mxGeometry>
        </mxCell>
        <mxCell id="KihU2rt-mS4HAPZHkK98-5" value="" style="endArrow=classic;html=1;rounded=0;exitX=-0.008;exitY=0.32;exitDx=0;exitDy=0;exitPerimeter=0;" parent="1" source="KihU2rt-mS4HAPZHkK98-1" edge="1">
          <mxGeometry width="50" height="50" relative="1" as="geometry">
            <mxPoint x="390" y="490" as="sourcePoint" />
            <mxPoint x="120" y="58" as="targetPoint" />
          </mxGeometry>
        </mxCell>
        <mxCell id="KihU2rt-mS4HAPZHkK98-6" value="power button" style="text;html=1;strokeColor=none;fillColor=none;align=center;verticalAlign=middle;whiteSpace=wrap;rounded=0;" parent="1" vertex="1">
          <mxGeometry x="60" y="10" width="60" height="30" as="geometry" />
        </mxCell>
        <mxCell id="KihU2rt-mS4HAPZHkK98-7" value="power LED" style="text;html=1;strokeColor=none;fillColor=none;align=center;verticalAlign=middle;whiteSpace=wrap;rounded=0;" parent="1" vertex="1">
          <mxGeometry x="60" y="40" width="60" height="30" as="geometry" />
        </mxCell>
        <mxCell id="KihU2rt-mS4HAPZHkK98-8" value="No front panel" style="text;html=1;strokeColor=none;fillColor=none;align=center;verticalAlign=middle;whiteSpace=wrap;rounded=0;fontSize=16;fontStyle=1" parent="1" vertex="1">
          <mxGeometry x="70" y="120" width="60" height="30" as="geometry" />
        </mxCell>
        <mxCell id="CAxa2ciVNZGHqUgR7_uP-2" value="5V" style="edgeStyle=orthogonalEdgeStyle;rounded=0;orthogonalLoop=1;jettySize=auto;html=1;exitX=0.25;exitY=1;exitDx=0;exitDy=0;entryX=1;entryY=0.5;entryDx=0;entryDy=0;" parent="1" source="KihU2rt-mS4HAPZHkK98-9" target="CAxa2ciVNZGHqUgR7_uP-1" edge="1">
          <mxGeometry relative="1" as="geometry" />
        </mxCell>
        <mxCell id="KihU2rt-mS4HAPZHkK98-9" value="CM5 I/O&lt;br&gt;(Saturn 40 pin)" style="rounded=0;whiteSpace=wrap;html=1;" parent="1" vertex="1">
          <mxGeometry x="440" y="240" width="120" height="150" as="geometry" />
        </mxCell>
        <mxCell id="KihU2rt-mS4HAPZHkK98-10" value="modify?" style="ellipse;whiteSpace=wrap;html=1;" parent="1" vertex="1">
          <mxGeometry x="232" y="240" width="78" height="30" as="geometry" />
        </mxCell>
        <mxCell id="KihU2rt-mS4HAPZHkK98-11" value="" style="endArrow=classic;html=1;rounded=0;entryX=0;entryY=0.5;entryDx=0;entryDy=0;" parent="1" target="KihU2rt-mS4HAPZHkK98-10" edge="1">
          <mxGeometry width="50" height="50" relative="1" as="geometry">
            <mxPoint x="120" y="255" as="sourcePoint" />
            <mxPoint x="440" y="670" as="targetPoint" />
          </mxGeometry>
        </mxCell>
        <mxCell id="KihU2rt-mS4HAPZHkK98-12" value="" style="endArrow=classic;html=1;rounded=0;entryX=0.004;entryY=0.095;entryDx=0;entryDy=0;entryPerimeter=0;" parent="1" target="KihU2rt-mS4HAPZHkK98-9" edge="1">
          <mxGeometry width="50" height="50" relative="1" as="geometry">
            <mxPoint x="310" y="254.5" as="sourcePoint" />
            <mxPoint x="412" y="254.5" as="targetPoint" />
          </mxGeometry>
        </mxCell>
        <mxCell id="KihU2rt-mS4HAPZHkK98-13" value="" style="endArrow=classic;html=1;rounded=0;exitX=-0.008;exitY=0.32;exitDx=0;exitDy=0;exitPerimeter=0;" parent="1" source="KihU2rt-mS4HAPZHkK98-9" edge="1">
          <mxGeometry width="50" height="50" relative="1" as="geometry">
            <mxPoint x="390" y="720" as="sourcePoint" />
            <mxPoint x="120" y="288" as="targetPoint" />
          </mxGeometry>
        </mxCell>
        <mxCell id="KihU2rt-mS4HAPZHkK98-14" value="power button" style="text;html=1;strokeColor=none;fillColor=none;align=center;verticalAlign=middle;whiteSpace=wrap;rounded=0;" parent="1" vertex="1">
          <mxGeometry x="60" y="240" width="60" height="30" as="geometry" />
        </mxCell>
        <mxCell id="KihU2rt-mS4HAPZHkK98-15" value="power LED" style="text;html=1;strokeColor=none;fillColor=none;align=center;verticalAlign=middle;whiteSpace=wrap;rounded=0;" parent="1" vertex="1">
          <mxGeometry x="60" y="270" width="60" height="30" as="geometry" />
        </mxCell>
        <mxCell id="KihU2rt-mS4HAPZHkK98-16" value="G2V1" style="text;html=1;strokeColor=none;fillColor=none;align=center;verticalAlign=middle;whiteSpace=wrap;rounded=0;fontSize=17;fontStyle=1" parent="1" vertex="1">
          <mxGeometry x="20" y="360" width="60" height="30" as="geometry" />
        </mxCell>
        <mxCell id="KihU2rt-mS4HAPZHkK98-17" value="Arduino&lt;br&gt;&lt;br&gt;serial 115200 baud" style="rounded=0;whiteSpace=wrap;html=1;" parent="1" vertex="1">
          <mxGeometry x="211" y="310" width="120" height="60" as="geometry" />
        </mxCell>
        <mxCell id="KihU2rt-mS4HAPZHkK98-18" value="" style="endArrow=classic;html=1;rounded=0;entryX=0;entryY=0.25;entryDx=0;entryDy=0;" parent="1" edge="1">
          <mxGeometry width="50" height="50" relative="1" as="geometry">
            <mxPoint x="120" y="340" as="sourcePoint" />
            <mxPoint x="211" y="340" as="targetPoint" />
          </mxGeometry>
        </mxCell>
        <mxCell id="KihU2rt-mS4HAPZHkK98-19" value="pushbuttons and encoders" style="text;html=1;strokeColor=none;fillColor=none;align=center;verticalAlign=middle;whiteSpace=wrap;rounded=0;" parent="1" vertex="1">
          <mxGeometry x="20" y="325" width="80" height="30" as="geometry" />
        </mxCell>
        <mxCell id="KihU2rt-mS4HAPZHkK98-20" value="" style="triangle;whiteSpace=wrap;html=1;" parent="1" vertex="1">
          <mxGeometry x="360" y="325" width="20" height="20" as="geometry" />
        </mxCell>
        <mxCell id="KihU2rt-mS4HAPZHkK98-26" style="edgeStyle=orthogonalEdgeStyle;rounded=0;orthogonalLoop=1;jettySize=auto;html=1;exitX=1;exitY=0.5;exitDx=0;exitDy=0;entryX=1;entryY=0.75;entryDx=0;entryDy=0;" parent="1" source="KihU2rt-mS4HAPZHkK98-21" target="KihU2rt-mS4HAPZHkK98-17" edge="1">
          <mxGeometry relative="1" as="geometry" />
        </mxCell>
        <mxCell id="KihU2rt-mS4HAPZHkK98-21" value="" style="triangle;whiteSpace=wrap;html=1;rotation=-180;" parent="1" vertex="1">
          <mxGeometry x="360" y="345" width="20" height="20" as="geometry" />
        </mxCell>
        <mxCell id="KihU2rt-mS4HAPZHkK98-22" value="24" style="endArrow=classic;html=1;rounded=0;entryX=0.011;entryY=0.637;entryDx=0;entryDy=0;entryPerimeter=0;exitX=1;exitY=0.5;exitDx=0;exitDy=0;endFill=1;labelBackgroundColor=none;" parent="1" source="KihU2rt-mS4HAPZHkK98-20" target="KihU2rt-mS4HAPZHkK98-9" edge="1">
          <mxGeometry x="0.3031" y="5" width="50" height="50" relative="1" as="geometry">
            <mxPoint x="390" y="520" as="sourcePoint" />
            <mxPoint x="440" y="470" as="targetPoint" />
            <mxPoint as="offset" />
          </mxGeometry>
        </mxCell>
        <mxCell id="KihU2rt-mS4HAPZHkK98-23" value="26" style="endArrow=none;html=1;rounded=0;entryX=-0.004;entryY=0.764;entryDx=0;entryDy=0;exitX=1;exitY=0.5;exitDx=0;exitDy=0;entryPerimeter=0;labelBackgroundColor=none;" parent="1" target="KihU2rt-mS4HAPZHkK98-9" edge="1">
          <mxGeometry x="0.6786" y="5" width="50" height="50" relative="1" as="geometry">
            <mxPoint x="380" y="354" as="sourcePoint" />
            <mxPoint x="441" y="355" as="targetPoint" />
            <mxPoint as="offset" />
          </mxGeometry>
        </mxCell>
        <mxCell id="KihU2rt-mS4HAPZHkK98-25" style="edgeStyle=orthogonalEdgeStyle;rounded=0;orthogonalLoop=1;jettySize=auto;html=1;exitX=0;exitY=0.5;exitDx=0;exitDy=0;entryX=1.01;entryY=0.425;entryDx=0;entryDy=0;entryPerimeter=0;startArrow=none;startFill=0;endArrow=none;endFill=0;" parent="1" source="KihU2rt-mS4HAPZHkK98-20" target="KihU2rt-mS4HAPZHkK98-17" edge="1">
          <mxGeometry relative="1" as="geometry" />
        </mxCell>
        <mxCell id="KihU2rt-mS4HAPZHkK98-27" value="1.8V reference" style="text;html=1;strokeColor=none;fillColor=none;align=center;verticalAlign=middle;whiteSpace=wrap;rounded=0;" parent="1" vertex="1">
          <mxGeometry x="340" y="370" width="60" height="30" as="geometry" />
        </mxCell>
        <mxCell id="KihU2rt-mS4HAPZHkK98-30" value="CM5 I/O&lt;br&gt;(Saturn 40 pin)" style="rounded=0;whiteSpace=wrap;html=1;" parent="1" vertex="1">
          <mxGeometry x="440" y="500" width="120" height="150" as="geometry" />
        </mxCell>
        <mxCell id="KihU2rt-mS4HAPZHkK98-31" value="modify" style="ellipse;whiteSpace=wrap;html=1;fillColor=#fff2cc;strokeColor=#d6b656;" parent="1" vertex="1">
          <mxGeometry x="232" y="500" width="78" height="30" as="geometry" />
        </mxCell>
        <mxCell id="KihU2rt-mS4HAPZHkK98-32" value="" style="endArrow=classic;html=1;rounded=0;entryX=0;entryY=0.5;entryDx=0;entryDy=0;" parent="1" target="KihU2rt-mS4HAPZHkK98-31" edge="1">
          <mxGeometry width="50" height="50" relative="1" as="geometry">
            <mxPoint x="120" y="515" as="sourcePoint" />
            <mxPoint x="440" y="930" as="targetPoint" />
          </mxGeometry>
        </mxCell>
        <mxCell id="KihU2rt-mS4HAPZHkK98-33" value="" style="endArrow=classic;html=1;rounded=0;entryX=0.002;entryY=0.107;entryDx=0;entryDy=0;entryPerimeter=0;" parent="1" target="KihU2rt-mS4HAPZHkK98-30" edge="1">
          <mxGeometry width="50" height="50" relative="1" as="geometry">
            <mxPoint x="310" y="514.5" as="sourcePoint" />
            <mxPoint x="412" y="514.5" as="targetPoint" />
          </mxGeometry>
        </mxCell>
        <mxCell id="KihU2rt-mS4HAPZHkK98-34" value="" style="endArrow=classic;html=1;rounded=0;exitX=-0.008;exitY=0.32;exitDx=0;exitDy=0;exitPerimeter=0;" parent="1" source="KihU2rt-mS4HAPZHkK98-30" edge="1">
          <mxGeometry width="50" height="50" relative="1" as="geometry">
            <mxPoint x="390" y="980" as="sourcePoint" />
            <mxPoint x="120" y="548" as="targetPoint" />
          </mxGeometry>
        </mxCell>
        <mxCell id="KihU2rt-mS4HAPZHkK98-35" value="power button" style="text;html=1;strokeColor=none;fillColor=none;align=center;verticalAlign=middle;whiteSpace=wrap;rounded=0;" parent="1" vertex="1">
          <mxGeometry x="60" y="500" width="60" height="30" as="geometry" />
        </mxCell>
        <mxCell id="KihU2rt-mS4HAPZHkK98-36" value="power LED" style="text;html=1;strokeColor=none;fillColor=none;align=center;verticalAlign=middle;whiteSpace=wrap;rounded=0;" parent="1" vertex="1">
          <mxGeometry x="60" y="530" width="60" height="30" as="geometry" />
        </mxCell>
        <mxCell id="KihU2rt-mS4HAPZHkK98-37" value="G2V2" style="text;html=1;strokeColor=none;fillColor=none;align=center;verticalAlign=middle;whiteSpace=wrap;rounded=0;fontSize=17;fontStyle=1" parent="1" vertex="1">
          <mxGeometry x="60" y="630" width="60" height="30" as="geometry" />
        </mxCell>
        <mxCell id="KihU2rt-mS4HAPZHkK98-38" value="Arduino&lt;br&gt;&lt;br&gt;serial 115200 baud" style="rounded=0;whiteSpace=wrap;html=1;" parent="1" vertex="1">
          <mxGeometry x="211" y="570" width="120" height="60" as="geometry" />
        </mxCell>
        <mxCell id="KihU2rt-mS4HAPZHkK98-39" value="" style="endArrow=classic;html=1;rounded=0;entryX=0;entryY=0.25;entryDx=0;entryDy=0;" parent="1" edge="1">
          <mxGeometry width="50" height="50" relative="1" as="geometry">
            <mxPoint x="120" y="600" as="sourcePoint" />
            <mxPoint x="211" y="600" as="targetPoint" />
          </mxGeometry>
        </mxCell>
        <mxCell id="KihU2rt-mS4HAPZHkK98-40" value="pushbuttons and encoders" style="text;html=1;strokeColor=none;fillColor=none;align=center;verticalAlign=middle;whiteSpace=wrap;rounded=0;" parent="1" vertex="1">
          <mxGeometry x="20" y="585" width="80" height="30" as="geometry" />
        </mxCell>
        <mxCell id="KihU2rt-mS4HAPZHkK98-41" value="" style="triangle;whiteSpace=wrap;html=1;" parent="1" vertex="1">
          <mxGeometry x="360" y="585" width="20" height="20" as="geometry" />
        </mxCell>
        <mxCell id="KihU2rt-mS4HAPZHkK98-42" style="edgeStyle=orthogonalEdgeStyle;rounded=0;orthogonalLoop=1;jettySize=auto;html=1;exitX=1;exitY=0.5;exitDx=0;exitDy=0;entryX=1;entryY=0.75;entryDx=0;entryDy=0;" parent="1" source="KihU2rt-mS4HAPZHkK98-43" target="KihU2rt-mS4HAPZHkK98-38" edge="1">
          <mxGeometry relative="1" as="geometry" />
        </mxCell>
        <mxCell id="KihU2rt-mS4HAPZHkK98-43" value="" style="triangle;whiteSpace=wrap;html=1;rotation=-180;" parent="1" vertex="1">
          <mxGeometry x="360" y="605" width="20" height="20" as="geometry" />
        </mxCell>
        <mxCell id="KihU2rt-mS4HAPZHkK98-44" value="24" style="endArrow=classic;html=1;rounded=0;entryX=0.011;entryY=0.637;entryDx=0;entryDy=0;entryPerimeter=0;exitX=1;exitY=0.5;exitDx=0;exitDy=0;endFill=1;labelBackgroundColor=none;" parent="1" source="KihU2rt-mS4HAPZHkK98-41" target="KihU2rt-mS4HAPZHkK98-30" edge="1">
          <mxGeometry x="0.3031" y="5" width="50" height="50" relative="1" as="geometry">
            <mxPoint x="390" y="780" as="sourcePoint" />
            <mxPoint x="440" y="730" as="targetPoint" />
            <mxPoint as="offset" />
          </mxGeometry>
        </mxCell>
        <mxCell id="KihU2rt-mS4HAPZHkK98-45" value="26" style="endArrow=none;html=1;rounded=0;entryX=0.001;entryY=0.764;entryDx=0;entryDy=0;exitX=1;exitY=0.5;exitDx=0;exitDy=0;entryPerimeter=0;labelBackgroundColor=none;" parent="1" target="KihU2rt-mS4HAPZHkK98-30" edge="1">
          <mxGeometry x="0.6618" y="4" width="50" height="50" relative="1" as="geometry">
            <mxPoint x="380" y="614" as="sourcePoint" />
            <mxPoint x="441" y="615" as="targetPoint" />
            <mxPoint as="offset" />
          </mxGeometry>
        </mxCell>
        <mxCell id="KihU2rt-mS4HAPZHkK98-46" style="edgeStyle=orthogonalEdgeStyle;rounded=0;orthogonalLoop=1;jettySize=auto;html=1;exitX=0;exitY=0.5;exitDx=0;exitDy=0;entryX=0.999;entryY=0.414;entryDx=0;entryDy=0;entryPerimeter=0;startArrow=none;startFill=0;endArrow=none;endFill=0;" parent="1" source="KihU2rt-mS4HAPZHkK98-41" target="KihU2rt-mS4HAPZHkK98-38" edge="1">
          <mxGeometry relative="1" as="geometry" />
        </mxCell>
        <mxCell id="CAxa2ciVNZGHqUgR7_uP-1" value="Display" style="rounded=0;whiteSpace=wrap;html=1;" parent="1" vertex="1">
          <mxGeometry x="30" y="400" width="80" height="60" as="geometry" />
        </mxCell>
        <mxCell id="TySl6ZEFBtJQWdXgLXJ_-1" value="&quot;Power button modify&quot;&lt;br&gt;&amp;nbsp;pin 5 needs a pullup, and a pulldown to ground via a diode:" style="text;html=1;strokeColor=none;fillColor=none;align=center;verticalAlign=middle;whiteSpace=wrap;rounded=0;" parent="1" vertex="1">
          <mxGeometry x="50" y="720" width="190" height="30" as="geometry" />
        </mxCell>
        <mxCell id="TySl6ZEFBtJQWdXgLXJ_-2" value="12K" style="rounded=0;whiteSpace=wrap;html=1;" parent="1" vertex="1">
          <mxGeometry x="290" y="720" width="20" height="40" as="geometry" />
        </mxCell>
        <mxCell id="TySl6ZEFBtJQWdXgLXJ_-3" value="" style="triangle;whiteSpace=wrap;html=1;rotation=-180;" parent="1" vertex="1">
          <mxGeometry x="250" y="780" width="20" height="20" as="geometry" />
        </mxCell>
        <mxCell id="TySl6ZEFBtJQWdXgLXJ_-4" value="" style="endArrow=none;html=1;rounded=0;" parent="1" edge="1">
          <mxGeometry width="50" height="50" relative="1" as="geometry">
            <mxPoint x="250" y="800" as="sourcePoint" />
            <mxPoint x="250" y="780" as="targetPoint" />
          </mxGeometry>
        </mxCell>
        <mxCell id="TySl6ZEFBtJQWdXgLXJ_-5" value="" style="endArrow=none;html=1;rounded=0;" parent="1" edge="1">
          <mxGeometry width="50" height="50" relative="1" as="geometry">
            <mxPoint x="200" y="820" as="sourcePoint" />
            <mxPoint x="190" y="800" as="targetPoint" />
            <Array as="points">
              <mxPoint x="200" y="810" />
            </Array>
          </mxGeometry>
        </mxCell>
        <mxCell id="TySl6ZEFBtJQWdXgLXJ_-6" value="" style="endArrow=none;html=1;rounded=0;" parent="1" edge="1">
          <mxGeometry width="50" height="50" relative="1" as="geometry">
            <mxPoint x="200" y="800" as="sourcePoint" />
            <mxPoint x="250" y="790" as="targetPoint" />
            <Array as="points">
              <mxPoint x="200" y="790" />
            </Array>
          </mxGeometry>
        </mxCell>
        <mxCell id="TySl6ZEFBtJQWdXgLXJ_-8" value="5" style="endArrow=none;html=1;rounded=0;" parent="1" edge="1">
          <mxGeometry x="0.7778" y="10" width="50" height="50" relative="1" as="geometry">
            <mxPoint x="270" y="790" as="sourcePoint" />
            <mxPoint x="360" y="790" as="targetPoint" />
            <mxPoint as="offset" />
          </mxGeometry>
        </mxCell>
        <mxCell id="TySl6ZEFBtJQWdXgLXJ_-10" value="" style="endArrow=none;html=1;rounded=0;entryX=0.5;entryY=1;entryDx=0;entryDy=0;" parent="1" target="TySl6ZEFBtJQWdXgLXJ_-2" edge="1">
          <mxGeometry width="50" height="50" relative="1" as="geometry">
            <mxPoint x="300" y="790" as="sourcePoint" />
            <mxPoint x="220" y="750" as="targetPoint" />
          </mxGeometry>
        </mxCell>
        <mxCell id="TySl6ZEFBtJQWdXgLXJ_-11" value="1" style="endArrow=none;html=1;rounded=0;entryX=0.5;entryY=0;entryDx=0;entryDy=0;" parent="1" target="TySl6ZEFBtJQWdXgLXJ_-2" edge="1">
          <mxGeometry x="-0.7143" y="-10" width="50" height="50" relative="1" as="geometry">
            <mxPoint x="360" y="710" as="sourcePoint" />
            <mxPoint x="220" y="750" as="targetPoint" />
            <Array as="points">
              <mxPoint x="300" y="710" />
            </Array>
            <mxPoint as="offset" />
          </mxGeometry>
        </mxCell>
        <mxCell id="TySl6ZEFBtJQWdXgLXJ_-12" value="CM5" style="rounded=0;whiteSpace=wrap;html=1;" parent="1" vertex="1">
          <mxGeometry x="360" y="700" width="50" height="100" as="geometry" />
        </mxCell>
        <mxCell id="TySl6ZEFBtJQWdXgLXJ_-13" value="GND" style="endArrow=none;html=1;rounded=0;" parent="1" edge="1">
          <mxGeometry y="10" width="50" height="50" relative="1" as="geometry">
            <mxPoint x="190" y="820" as="sourcePoint" />
            <mxPoint x="430" y="820" as="targetPoint" />
            <mxPoint as="offset" />
          </mxGeometry>
        </mxCell>
        <mxCell id="TySl6ZEFBtJQWdXgLXJ_-14" value="6" style="endArrow=none;html=1;rounded=0;entryX=0.5;entryY=1;entryDx=0;entryDy=0;" parent="1" target="TySl6ZEFBtJQWdXgLXJ_-12" edge="1">
          <mxGeometry y="-5" width="50" height="50" relative="1" as="geometry">
            <mxPoint x="385" y="820" as="sourcePoint" />
            <mxPoint x="390" y="750" as="targetPoint" />
            <mxPoint as="offset" />
          </mxGeometry>
        </mxCell>
        <mxCell id="TySl6ZEFBtJQWdXgLXJ_-15" value="FP power Switch" style="text;html=1;strokeColor=none;fillColor=none;align=center;verticalAlign=middle;whiteSpace=wrap;rounded=0;" parent="1" vertex="1">
          <mxGeometry x="130" y="790" width="60" height="30" as="geometry" />
        </mxCell>
        <mxCell id="EU09xRj1jVYX7MPKdCW3-1" value="3" style="endArrow=classic;html=1;rounded=0;exitX=1;exitY=0.5;exitDx=0;exitDy=0;endFill=1;" edge="1" parent="1" source="TySl6ZEFBtJQWdXgLXJ_-12">
          <mxGeometry x="-0.75" y="10" width="50" height="50" relative="1" as="geometry">
            <mxPoint x="150" y="690" as="sourcePoint" />
            <mxPoint x="490" y="750" as="targetPoint" />
            <mxPoint as="offset" />
          </mxGeometry>
        </mxCell>
        <mxCell id="EU09xRj1jVYX7MPKdCW3-2" value="to power LED" style="text;html=1;strokeColor=none;fillColor=none;align=center;verticalAlign=middle;whiteSpace=wrap;rounded=0;" vertex="1" parent="1">
          <mxGeometry x="490" y="730" width="60" height="30" as="geometry" />
        </mxCell>
        <mxCell id="EU09xRj1jVYX7MPKdCW3-4" value="ref voltage 1.8V" style="text;html=1;strokeColor=none;fillColor=none;align=center;verticalAlign=middle;whiteSpace=wrap;rounded=0;" vertex="1" parent="1">
          <mxGeometry x="340" y="625" width="70" height="30" as="geometry" />
        </mxCell>
      </root>
    </mxGraphModel>
  </diagram>
</mxfile>
